<?xml version="1.0" standalone="no"?>
<!DOCTYPE svg PUBLIC "-//W3C//DTD SVG 20010904//EN"
 "http://www.w3.org/TR/2001/REC-SVG-20010904/DTD/svg10.dtd">
<svg version="1.0" xmlns="http://www.w3.org/2000/svg"
 width="1000.000000pt" height="466.000000pt" viewBox="0 0 1000.000000 466.000000"
 preserveAspectRatio="xMidYMid meet">
<metadata>
Created by potrace 1.16, written by Peter Selinger 2001-2019
</metadata>
<g transform="translate(0.000000,466.000000) scale(0.100000,-0.100000)"
fill="#eb9d56" stroke="none">
<path d="M4935 4259 c-218 -9 -473 -46 -649 -92 -44 -11 -25 -13 165 -9 349 6
529 -34 782 -174 46 -26 49 -26 125 -14 121 19 376 24 534 11 400 -33 597 -75
2043 -436 1409 -352 1274 -319 1255 -307 -30 19 -868 268 -1530 456 -938 265
-1644 449 -2015 525 -197 40 -429 53 -710 40z"/>
<path d="M4265 4084 c-98 -11 -208 -36 -262 -61 -392 -179 -1052 -631 -1380
-947 -110 -105 -99 -130 72 -172 153 -37 304 -49 432 -35 448 50 1023 291
1578 664 156 104 301 214 377 286 l60 57 -26 31 c-49 58 -220 123 -413 158
-87 15 -360 27 -438 19z m310 -129 c135 -23 345 -87 345 -104 0 -9 -198 -153
-340 -248 -157 -105 -367 -225 -535 -307 -150 -74 -433 -191 -440 -184 -3 2
54 30 125 62 145 66 384 192 565 299 139 83 526 339 543 360 24 29 -259 106
-463 127 -60 6 -114 13 -120 16 -23 10 237 -7 320 -21z"/>
<path d="M5975 3646 c-273 -46 -401 -127 -1190 -756 -334 -267 -514 -370 -830
-477 -447 -152 -943 -231 -1374 -220 -218 5 -365 26 -478 69 -81 30 -75 15 9
-25 172 -82 317 -109 633 -114 354 -7 662 28 1087 123 478 106 764 215 1383
528 495 250 691 324 1015 384 141 26 155 26 550 27 408 0 532 -5 1180 -51 350
-24 1092 -85 1284 -104 151 -15 142 -19 110 40 -15 28 -33 55 -39 60 -23 19
-2257 416 -2755 490 -244 36 -465 46 -585 26z"/>
<path d="M4175 2894 c-209 -21 -260 -39 -580 -203 -288 -149 -715 -389 -715
-403 0 -17 355 26 525 63 50 11 142 34 206 50 126 33 139 44 139 110 0 107
-131 158 -213 83 -28 -26 -30 -27 -16 -5 25 39 77 63 130 58 83 -7 139 -70
139 -156 l0 -41 93 34 c197 72 214 85 204 158 -10 74 -69 128 -140 128 -44 0
-70 -11 -111 -49 -27 -25 -28 -25 -17 -3 15 28 65 60 109 68 99 19 202 -65
202 -166 0 -16 3 -30 8 -30 26 0 278 153 402 244 l55 41 -40 7 c-50 8 -326 17
-380 12z"/>
<path d="M8935 2839 c-702 -72 -1531 -168 -2180 -255 -418 -55 -870 -122 -910
-134 -27 -9 -26 -9 10 -5 22 3 229 25 460 50 600 64 1129 126 1760 205 497 63
1187 155 1225 164 47 12 -121 0 -365 -25z"/>
<path d="M9390 2823 c-14 -3 -565 -99 -1225 -213 -1962 -341 -2396 -419 -2468
-442 -67 -20 -199 -96 -277 -158 -21 -17 -92 -76 -157 -132 -176 -150 -239
-189 -401 -242 -416 -136 -855 -230 -1322 -281 -202 -22 -704 -31 -910 -16
-364 27 -634 109 -754 228 -116 115 -155 318 -101 518 51 190 185 409 378 620
52 57 69 79 45 61 -21 -15 -77 -73 -125 -128 -342 -389 -450 -741 -312 -1015
59 -117 166 -193 376 -269 225 -81 406 -109 918 -139 235 -14 364 -31 383 -49
12 -13 -14 -41 -64 -68 -27 -14 -238 -90 -469 -168 -560 -190 -1760 -606
-1782 -619 -17 -10 -16 -10 3 -11 11 0 364 103 785 229 943 283 2400 719 4094
1226 710 212 1772 530 2360 707 589 176 1072 322 1073 323 6 6 -9 45 -16 44
-4 -1 -18 -4 -32 -6z"/>
<path d="M2050 1151 c-504 -147 -1459 -447 -1475 -463 -7 -7 -2 -8 15 -3 33
10 1092 300 1523 417 354 96 365 102 234 113 -55 4 -87 -2 -297 -64z"/>
</g>
</svg>
