<?xml version="1.0" standalone="no"?>
<!DOCTYPE svg PUBLIC "-//W3C//DTD SVG 20010904//EN"
 "http://www.w3.org/TR/2001/REC-SVG-20010904/DTD/svg10.dtd">
<svg version="1.0" xmlns="http://www.w3.org/2000/svg"
 width="1000.000000pt" height="466.000000pt" viewBox="0 0 1000.000000 466.000000"
 preserveAspectRatio="xMidYMid meet">
<metadata>
Created by potrace 1.16, written by Peter Selinger 2001-2019
</metadata>
<g transform="translate(0.000000,466.000000) scale(0.100000,-0.100000)"
fill="#000000" stroke="none">
<path d="M4680 4260 c-159 -8 -198 -14 -440 -66 -455 -98 -1528 -387 -2595
-700 -431 -127 -818 -245 -835 -256 -19 -12 -152 -45 1255 307 1446 361 1643
403 2043 436 158 13 413 8 534 -11 76 -12 79 -12 125 14 136 75 258 122 403
153 69 15 131 18 337 18 276 0 278 1 58 45 -166 32 -320 50 -525 60 -107 5
-199 9 -205 8 -5 0 -75 -4 -155 -8z"/>
<path d="M5435 4084 c-245 -25 -489 -104 -551 -177 l-26 -31 60 -57 c296 -279
961 -664 1421 -823 409 -142 698 -167 991 -86 147 41 153 65 48 166 -281 269
-807 644 -1203 856 -175 94 -227 116 -318 133 -80 16 -341 27 -422 19z m310
-109 c-5 -2 -59 -9 -120 -15 -132 -13 -257 -40 -383 -82 -77 -26 -90 -33 -80
-45 17 -21 404 -277 543 -360 181 -107 420 -233 565 -299 71 -32 128 -60 125
-62 -7 -7 -286 109 -430 178 -168 82 -344 182 -520 297 -151 99 -365 254 -365
264 0 9 126 54 222 78 70 18 175 35 268 44 48 5 187 6 175 2z"/>
<path d="M3690 3654 c-95 -10 -408 -57 -720 -110 -787 -133 -2270 -402 -2285
-414 -6 -5 -24 -32 -39 -60 -21 -39 -24 -50 -12 -50 8 0 140 11 293 25 551 49
1143 94 1678 127 116 7 392 13 615 13 395 -1 409 -1 550 -27 329 -60 515 -132
1055 -403 220 -111 463 -227 540 -259 323 -132 664 -230 1050 -300 342 -62
438 -71 775 -71 322 0 381 6 555 56 73 22 220 87 212 95 -2 3 -38 -6 -78 -20
-124 -41 -249 -58 -466 -63 -425 -11 -923 69 -1368 220 -316 107 -496 210
-830 477 -408 325 -693 540 -827 624 -91 56 -199 99 -303 121 -78 17 -304 27
-395 19z"/>
<path d="M5570 2894 c-19 -2 -63 -7 -98 -10 -49 -4 -61 -8 -53 -18 32 -39 413
-276 443 -276 5 0 8 14 8 30 0 101 103 185 203 166 43 -8 93 -40 108 -68 11
-22 10 -22 -17 3 -41 38 -67 49 -111 49 -71 0 -130 -54 -140 -128 -10 -73 7
-86 205 -158 l92 -34 0 41 c0 86 56 149 139 156 53 5 105 -19 130 -58 14 -22
12 -21 -16 5 -82 75 -213 24 -213 -83 0 -66 13 -77 139 -110 64 -16 157 -39
206 -50 170 -37 525 -80 525 -63 0 14 -421 251 -705 398 -256 132 -352 173
-445 190 -76 13 -337 26 -400 18z"/>
<path d="M700 2864 c38 -9 728 -101 1225 -164 631 -79 1160 -141 1760 -205
231 -25 438 -47 460 -50 36 -4 37 -4 10 5 -71 22 -918 139 -1620 224 -880 107
-1951 218 -1835 190z"/>
<path d="M565 2809 c-4 -11 -5 -22 -3 -24 1 -1 507 -154 1123 -338 616 -185
1700 -510 2410 -722 710 -212 1724 -516 2255 -675 531 -159 1311 -393 1734
-520 424 -126 779 -230 790 -230 20 1 20 1 3 11 -27 16 -1173 413 -1832 636
-203 68 -392 136 -419 151 -50 27 -76 55 -64 68 19 18 148 35 383 49 512 30
693 58 918 139 273 99 380 201 423 406 53 248 -71 550 -359 878 -48 55 -104
113 -125 128 -24 18 -7 -4 45 -61 310 -338 447 -665 389 -926 -40 -179 -142
-275 -376 -353 -227 -76 -494 -102 -955 -93 -165 3 -365 13 -445 22 -467 51
-906 145 -1322 281 -162 53 -225 92 -401 242 -65 56 -136 115 -157 132 -78 62
-210 138 -277 158 -75 24 -409 84 -2358 422 -726 126 -1332 232 -1347 234 -21
4 -28 1 -33 -15z"/>
<path d="M7601 1209 c-24 -5 -45 -10 -47 -12 -2 -2 148 -45 334 -95 431 -117
1489 -407 1522 -417 17 -5 22 -4 15 3 -18 17 -1043 339 -1489 466 -233 67
-256 71 -335 55z"/>
</g>
</svg>
